# This file uses centimeters as units for non-parametric coordinates.

mtllib prisma.mtl
g default
v -20.182096 -105.828795 -471.213903
v -272.696344 -105.828795 3.098447
v 264.327301 -105.828795 -15.374000
v -20.182096 118.920530 -471.213903
v -272.696344 118.920530 3.098447
v 264.327301 118.920530 -15.374000
vt 0.421875 0.020934
vt 0.421875 0.291566
vt 0.656250 0.156250
vt 0.375000 0.312500
vt 0.458333 0.312500
vt 0.541667 0.312500
vt 0.625000 0.312500
vt 0.375000 0.688440
vt 0.458333 0.688440
vt 0.541667 0.688440
vt 0.625000 0.688440
vt 0.421875 0.708434
vt 0.421875 0.979066
vt 0.656250 0.843750
vn -0.882702 0.000000 -0.469933
vn -0.882702 0.000000 -0.469933
vn -0.882702 0.000000 -0.469933
vn -0.882702 0.000000 -0.469933
vn 0.034378 0.000000 0.999409
vn 0.034378 0.000000 0.999409
vn 0.034378 0.000000 0.999409
vn 0.034378 0.000000 0.999409
vn 0.848325 0.000000 -0.529476
vn 0.848325 0.000000 -0.529476
vn 0.848325 0.000000 -0.529476
vn 0.848325 0.000000 -0.529476
vn 0.000000 -1.000000 -0.000000
vn 0.000000 -1.000000 -0.000000
vn 0.000000 -1.000000 -0.000000
vn 0.000000 1.000000 0.000000
vn 0.000000 1.000000 0.000000
vn 0.000000 1.000000 0.000000
s off
g pPrism1
usemtl initialShadingGroup
f 1/4/1 2/5/2 5/9/3 4/8/4
f 2/5/5 3/6/6 6/10/7 5/9/8
f 3/6/9 1/7/10 4/11/11 6/10/12
f 1/1/13 3/3/14 2/2/15
f 4/13/16 5/12/17 6/14/18
